<?xml version="1.0" encoding="UTF-8"?>
<svg id="Layer_2" data-name="Layer 2" xmlns="http://www.w3.org/2000/svg" viewBox="0 0 1994.55 237.27">
  <defs>
    <style>
      .cls-1 {
        fill: #fff;
      }

      .cls-2 {
        fill: #d8e5f5;
      }

      .cls-3 {
        fill: #d7e5f5;
      }
    </style>
  </defs>
  <g id="Layer_1-2" data-name="Layer 1">
    <g>
      <path class="cls-2" d="M19.93,188.56c-50.85,26.79,169.17,28.11,155.06,4.63-5.22-9.39-20.04-12.04-40.67-10.58.22-5.04-2.71-8.14-11.57-7.6,1.25-15.04-2.6-26.61-27-24.13-9.7-42.26-83.46-47.33-81.99-3.69-18.51.22-19.84,30.2,6.17,41.38Z"/>
      <path class="cls-1" d="M127.6,196.26c41.22,6.17,53.34-13.67,6.61-13.67.39,4.18-2.52,8.84-6.61,13.67Z"/>
      <path class="cls-1" d="M122.91,190.37c.95-15.87-29.28-15.59-35.44,0,8.29-17.36,9.71-32.62-10.24-43.48,5.9,13.5.45,25.67-9.07,37.36-.28-18.51-29.39-23.47-34.26-7.42-8.12-6.25-14.5,5.66-2.69,18.33-7-2.64-10.8,1.65-6.38,6.94-14.16-.77-16.62-9.02-5.04-14.22-21.11-5.07-28.16-39.56-7.05-41-.28-41.44,70.14-40.45,83.64,2.98,20.93-3.41,28.63,5.9,26.54,24.63,11.89-.68,8.24,14.88,0,15.87Z"/>
      <path class="cls-3" d="M31.37,152.25c1.75-15.69,18.61-18.15,33.89-7.44-3.47-20-50.52-21.89-39.51,3.72-5.59-.04-6.99,2.35-6.45,5.87,2.74-4.72,7.03-4.6,12.07-2.15Z"/>
    </g>
    <g>
      <path class="cls-1" d="M1993.11,194.75c-.85.94-2.08,1.84-3.66,2.71-10.51,4.5-34.92,8.53-64.54,11.45-24.23,1.71-52.63,2.38-81.6,1.99-46,6.68-83.94-1.32-100.09-9.18-9.54-4.66-11.47-9.27-2.94-10.77-1.21-10.8,3.82-15.51,13.61-15.59,2.61-30.31,37.83-39.21,49.3-24.77-3.21-43.79,62.6-61.68,79.11-27.28,27.28-13.76,48.15,7.1,42.19,25.68,18.05.76,20.48,11.03,11.92,27.97,41.27-8.84,47.12,1.9,49.3,14.68,2.37-1.99,5.25-2.44,8.48-1.84.73,1.76.33,3.41-1.08,4.95Z"/>
      <path class="cls-2" d="M1993.11,194.75c-.85.94-2.08,1.84-3.66,2.71-10.51,4.5-34.92,8.53-64.54,11.45-24.23,1.71-52.63,2.38-81.6,1.99-46,6.68-83.94-1.32-100.09-9.18-.42-11.17,9.58-9.27,24.32-1.37-25.98-34.24,24.92-57.32,35.01-15.29-5.66-33.47,24.3-59.31,35.16-33.32,26.14-12.35,39.74,15.59,20.63,40.81,20.68-13.36,34.37-13.75,37.15,6.12,31.12-14.96,75.3,5.76,97.62-3.92Z"/>
      <path class="cls-2" d="M1882.36,123.32c-1.05,5.11-4.62,7.83-9.17,9.63,8.42,1.94,13.01,5.76,14.37,11.16,22.65-.53,22.47,19.87,11.46,34.85,9.04-3.73,16.57-3.58,21.71,2.75,5.06-7.99,4.35-14-5.66-16.82,6.71-20.62,10.77-39.5-23.08-33.32,5.05-2.58,9.92-7.25,14.13-11.99-8.34-1.84-16.68-.11-23.76,3.73Z"/>
    </g>
    <g>
      <path class="cls-1" d="M1728.9,89.01s-.01.03-.01.03c-6.98,21.96-28.03,39.52-66.26,40.22-6.87,22.01-80.75,21.29-93.09-17.43-12.46-6.72-8.96-16.35,3.21-19.72-7.02-12.15-9.73-28.61-5.5-41.95,3.96-12.51,14.02-22.28,32.33-23.17.84-28.64,67.27-36.73,100.81-13.3,25.51,17.82,36.67,49.59,28.51,75.32Z"/>
      <path class="cls-2" d="M1728.89,89.04c-6.98,21.96-28.03,39.52-66.26,40.22-6.87,22.01-80.75,21.29-93.09-17.43-12.46-6.72-8.96-16.35,3.21-19.72-7.02-12.15-9.73-28.61-5.5-41.95l.46.17c16.41,47.28,49.22,32.92,60.18,12.07,5.7-10.84,25.42-3.3,20.31,5.35,68.65-39.9,49.95,38.98,51.37,43.8,3.66,12.4,21.83-3.82,29.32-22.51Z"/>
    </g>
    <g>
      <path class="cls-1" d="M1757.06,134.3c0,2.85-1.4,5.42-3.66,7.28-2.24,1.83-5.32,2.97-8.72,2.97-6.84,0-12.38-4.59-12.38-10.25,0-1.88.61-3.64,1.69-5.16,2.15-3.04,6.13-5.08,10.69-5.08,6.84,0,12.38,4.59,12.38,10.24Z"/>
      <path class="cls-3" d="M1753.83,141.21c-1.99,2.12-5.75,3.34-9.15,3.34-6.84,0-12.38-4.59-12.38-10.25,0-1.88.61-3.64,1.69-5.16h0c2.34,6.57,5.77,12.08,13.45,9.48,3.04-1.03,4.47,4.38,6.38,2.59Z"/>
    </g>
    <g>
      <path class="cls-1" d="M1611.47,218.63c-.85.94-2.08,1.84-3.66,2.71-10.51,4.5-34.92,8.53-64.54,11.45-24.23,1.71-52.63,2.38-81.6,1.99-46,6.68-83.94-1.32-100.09-9.18-9.54-4.66-11.47-9.27-2.94-10.77-1.21-10.8,3.82-15.51,13.61-15.59,2.61-30.31,37.83-39.21,49.3-24.77-3.21-43.79,62.6-61.68,79.11-27.28,27.28-13.76,48.15,7.1,42.19,25.68,18.05.76,20.48,11.03,11.92,27.97,41.27-8.84,47.12,1.9,49.3,14.68,2.37-1.99,5.25-2.44,8.48-1.84.73,1.76.33,3.41-1.08,4.95Z"/>
      <path class="cls-2" d="M1611.47,218.63c-.85.94-2.08,1.84-3.66,2.71-10.51,4.5-34.92,8.53-64.54,11.45-24.23,1.71-52.63,2.38-81.6,1.99-46,6.68-83.94-1.32-100.09-9.18-.42-11.17,9.58-9.27,24.32-1.37-25.98-34.24,24.92-57.32,35.01-15.29-5.66-33.47,24.3-59.31,35.16-33.32,26.14-12.35,39.74,15.59,20.63,40.81,20.68-13.36,34.37-13.75,37.15,6.12,31.12-14.96,75.3,5.76,97.62-3.92Z"/>
      <path class="cls-2" d="M1500.71,147.2c-1.05,5.11-4.62,7.83-9.17,9.63,8.42,1.94,13.01,5.76,14.37,11.16,22.65-.53,22.47,19.87,11.46,34.85,9.04-3.73,16.57-3.58,21.71,2.75,5.06-7.99,4.35-14-5.66-16.82,6.71-20.62,10.77-39.5-23.08-33.32,5.05-2.58,9.92-7.25,14.13-11.99-8.34-1.84-16.68-.11-23.76,3.73Z"/>
    </g>
    <g>
      <path class="cls-1" d="M1608.88,171.82c0,2.85-1.4,5.42-3.66,7.28-2.24,1.83-5.32,2.97-8.72,2.97-6.84,0-12.38-4.59-12.38-10.25,0-1.88.61-3.64,1.69-5.16,2.15-3.04,6.13-5.08,10.69-5.08,6.84,0,12.38,4.59,12.38,10.24Z"/>
      <path class="cls-3" d="M1605.65,178.72c-1.99,2.12-5.75,3.34-9.15,3.34-6.84,0-12.38-4.59-12.38-10.25,0-1.88.61-3.64,1.69-5.16h0c2.34,6.57,5.77,12.08,13.45,9.48,3.04-1.03,4.47,4.38,6.38,2.59Z"/>
    </g>
    <g>
      <path class="cls-1" d="M1399.85,110.33c0,2.85-1.4,5.42-3.66,7.28-2.24,1.83-5.32,2.97-8.72,2.97-6.84,0-12.38-4.59-12.38-10.25,0-1.88.61-3.64,1.69-5.16,2.15-3.04,6.13-5.08,10.69-5.08,6.84,0,12.38,4.59,12.38,10.24Z"/>
      <path class="cls-3" d="M1396.62,117.24c-1.99,2.12-5.75,3.34-9.15,3.34-6.84,0-12.38-4.59-12.38-10.25,0-1.88.61-3.64,1.69-5.16h0c2.34,6.57,5.77,12.08,13.45,9.48,3.04-1.03,4.47,4.38,6.38,2.59Z"/>
    </g>
    <g>
      <path class="cls-1" d="M1335.16,141.15s-.01.03-.01.03c-6.98,21.96-28.03,39.52-66.26,40.22-6.87,22.01-80.75,21.29-93.09-17.43-12.46-6.72-8.96-16.35,3.21-19.72-7.02-12.15-9.73-28.61-5.5-41.95,3.96-12.51,14.02-22.28,32.33-23.17.84-28.64,67.27-36.73,100.81-13.3,25.51,17.82,36.67,49.59,28.51,75.32Z"/>
      <path class="cls-2" d="M1335.15,141.18c-6.98,21.96-28.03,39.52-66.26,40.22-6.87,22.01-80.75,21.29-93.09-17.43-12.46-6.72-8.96-16.35,3.21-19.72-7.02-12.15-9.73-28.61-5.5-41.95l.46.17c16.41,47.28,49.22,32.92,60.18,12.07,5.7-10.84,25.42-3.3,20.31,5.35,68.65-39.9,49.95,38.98,51.37,43.8,3.66,12.4,21.83-3.82,29.32-22.51Z"/>
    </g>
    <g>
      <path class="cls-1" d="M1158.08,198.71c-.18,3.03-2.52,5.17-6.13,6.6-.09.04-.19.07-.29.11-2.25.85-4.96,1.43-7.94,1.79-19.57,2.38-50.39-4.97-33.79-10.33-1.02-4.43.31-7.74,2.6-9.71h.01c4.18-3.61,11.52-2.77,13.44,3.75,19.46-19.38,37.45-7.42,32.1,7.79Z"/>
      <path class="cls-3" d="M1152.04,205.32c-.12.03-.25.07-.38.1-2.38.64-5.07,1.25-7.94,1.79-19.57,2.38-50.39-4.97-33.79-10.33-1.02-4.43.31-7.74,2.6-9.71h.01c-2.21,4.72.56,9.38,3.96,12.54,3.6-4.4,6.66-4.2,9.17.57,8.26-10.55,17.31-5.96,16.84,3.78l9.44,1.25h.09Z"/>
    </g>
    <g>
      <path class="cls-1" d="M1081.18,157.77c-30.86,3.95-84.62,5.86-136.98,1.04-38.76,3.67-54.03-7.64,0-9.17-1.92-10.77,9.93-8.27,18.72-7.95-9.48-6.34-11.65-16.34,1.22-16.81-5.54-11.28-4.48-22.83.76-31.27,6.21-10.02,18.32-15.63,32.26-11.15,19.04-46.32,129.79-21.56,85.53,52.51,14.91-6.19,24.65,2.98,15.59,11.69,17.84,3.38,7.86,7.91-17.1,11.11Z"/>
      <path class="cls-3" d="M1081.18,157.77c-30.86,3.95-84.62,5.86-136.98,1.04-38.76,3.67-54.03-7.64,0-9.17-1.92-10.77,9.93-8.27,18.72-7.95-9.48-6.34-11.65-16.34,1.22-16.81-5.54-11.28-4.48-22.83.76-31.27l1.92,1.38c-1.18,13.8,4.04,23.4,14.83,29.35-2.28-13.34,10.55-25.22,24.91-19.56-4.89-29.05,85.92-28.59,45.86,32.71,7.15-1.25,10.19,2.4,9.48,10.55,14.73-3.54,21.2-.33,19.28,9.73Z"/>
    </g>
    <g>
      <path class="cls-1" d="M153.57,110.23c-.18,3.03-2.52,5.17-6.13,6.6-.09.04-.19.07-.29.11-2.25.85-4.96,1.43-7.94,1.79-19.57,2.38-50.39-4.97-33.79-10.33-1.02-4.43.31-7.74,2.6-9.71h.01c4.18-3.61,11.52-2.77,13.44,3.75,19.46-19.38,37.45-7.42,32.1,7.79Z"/>
      <path class="cls-3" d="M147.53,116.84c-.12.03-.25.07-.38.1-2.38.64-5.07,1.25-7.94,1.79-19.57,2.38-50.39-4.97-33.79-10.33-1.02-4.43.31-7.74,2.6-9.71h.01c-2.21,4.72.56,9.38,3.96,12.54,3.6-4.4,6.66-4.2,9.17.57,8.26-10.55,17.31-5.96,16.84,3.78l9.44,1.25h.09Z"/>
    </g>
    <g>
      <path class="cls-1" d="M187.63,144.54c0,2.85-1.4,5.42-3.66,7.28-2.24,1.83-5.32,2.97-8.72,2.97-6.84,0-12.38-4.59-12.38-10.25,0-1.88.61-3.64,1.69-5.16,2.15-3.04,6.13-5.08,10.69-5.08,6.84,0,12.38,4.59,12.38,10.24Z"/>
      <path class="cls-3" d="M184.4,151.45c-1.99,2.12-5.75,3.34-9.15,3.34-6.84,0-12.38-4.59-12.38-10.25,0-1.88.61-3.64,1.69-5.16h0c2.34,6.57,5.77,12.08,13.45,9.48,3.04-1.03,4.47,4.38,6.38,2.59Z"/>
    </g>
  </g>
</svg>